<?xml version="1.0" encoding="UTF-8"?>
<svg version="1.1" xmlns="http://www.w3.org/2000/svg" width="512" height="512">
<path d="M0 0 C6.35999641 4.4932122 11.80599408 9.4779339 16.66015625 15.56640625 C17.10230469 16.03949219 17.54445312 16.51257813 18 17 C18.66 17 19.32 17 20 17 C21.427627 15.51005634 21.427627 15.51005634 22.9375 13.5625 C34.72777402 -0.16855987 51.55506562 -9.75250353 69.76269531 -11.22314453 C91.83928897 -12.37124257 111.33618208 -8.29590593 128.4765625 6.6328125 C141.03800367 18.41645546 151.92850921 34.44544345 154 52 C154.14895854 56.67233273 154.11964141 61.32733833 154 66 C154.70382812 66.13535156 155.40765625 66.27070312 156.1328125 66.41015625 C168.50089949 69.10659297 179.56955101 74.53149116 189 83 C189.82113281 83.72832031 190.64226562 84.45664063 191.48828125 85.20703125 C204.77150592 97.68399039 213.60328571 115.24473816 214.3359375 133.6015625 C214.58069491 150.00842258 212.51348618 163.18857848 205 178 C205.81082031 178.52207031 206.62164062 179.04414063 207.45703125 179.58203125 C226.1772933 191.90480518 238.88450074 208.23903733 243.60302734 230.4921875 C246.87534992 251.16457216 242.82190983 271.14237658 231.30859375 288.55859375 C229.62883514 290.80736571 227.87356601 292.91040437 226 295 C225.33355469 295.74765625 224.66710937 296.4953125 223.98046875 297.265625 C218.28893441 303.2955749 212.02702447 307.6363486 205 312 C205.39832031 312.87140625 205.79664063 313.7428125 206.20703125 314.640625 C214.47884341 333.23710782 217.76329931 353.62325338 211.37890625 373.48828125 C206.46274364 386.00848007 200.72379189 395.64964768 191 405 C190.01580078 405.99580078 190.01580078 405.99580078 189.01171875 407.01171875 C180.52784617 415.09592281 166.03385241 424 154 424 C154.04640625 424.83660156 154.0928125 425.67320312 154.140625 426.53515625 C154.74656119 446.07659836 147.29169329 463.75378654 134 478 C121.26056472 491.22551866 104.56376345 500.80870514 85.7890625 501.23828125 C63.08369726 501.65026631 44.02803681 497.14632616 27 481 C25.03303567 478.86261277 23.15033461 476.70445392 21.33984375 474.43359375 C20.89769531 473.96050781 20.45554687 473.48742187 20 473 C19.34 473 18.68 473 18 473 C16.572373 474.48994366 16.572373 474.48994366 15.0625 476.4375 C3.27222598 490.16855987 -13.55506562 499.75250353 -31.76269531 501.22314453 C-53.83928897 502.37124257 -73.33618208 498.29590593 -90.4765625 483.3671875 C-103.03800367 471.58354454 -113.92850921 455.55455655 -116 438 C-116.14895854 433.32766727 -116.11964141 428.67266167 -116 424 C-116.70382813 423.86464844 -117.40765625 423.72929687 -118.1328125 423.58984375 C-130.50089949 420.89340703 -141.56955101 415.46850884 -151 407 C-152.23169922 405.90751953 -152.23169922 405.90751953 -153.48828125 404.79296875 C-166.77150592 392.31600961 -175.60328571 374.75526184 -176.3359375 356.3984375 C-176.58069491 339.99157742 -174.51348618 326.81142152 -167 312 C-167.81082031 311.47792969 -168.62164062 310.95585937 -169.45703125 310.41796875 C-187.94746894 298.24647869 -200.53881689 282.00734379 -205.64453125 260.25390625 C-207.03773219 247.50075915 -207.55585914 233.12446385 -203 221 C-202.6596875 220.02546875 -202.319375 219.0509375 -201.96875 218.046875 C-195.2542056 200.35314313 -182.94191369 187.70982178 -167 178 C-167.31453125 177.37996094 -167.6290625 176.75992188 -167.953125 176.12109375 C-176.85140525 157.70808613 -179.73455603 136.28731198 -173.37890625 116.51171875 C-168.46274364 103.99151993 -162.72379189 94.35035232 -153 85 C-152.34386719 84.33613281 -151.68773437 83.67226562 -151.01171875 82.98828125 C-142.52784617 74.90407719 -128.03385241 66 -116 66 C-116.04640625 65.16339844 -116.0928125 64.32679687 -116.140625 63.46484375 C-116.74656119 43.92340164 -109.29169329 26.24621346 -96 12 C-70.62800693 -14.34008183 -31.2717619 -18.8446679 0 0 Z " fill="#FEBA33" transform="translate(237,11)"/>
<path d="M0 0 C3.92502927 2.75962855 7.54798568 5.66805575 11 9 C11.65382408 9.60771964 12.30764816 10.21543928 12.9812851 10.84157467 C17.80804435 15.69747949 19.91238127 19.02347985 19.99536133 25.91014099 C19.96659912 26.87831253 19.93783691 27.84648407 19.90820312 28.84399414 C19.90937134 29.88894043 19.91053955 30.93388672 19.91174316 32.01049805 C19.90620516 35.43677452 19.84415189 38.85949417 19.78125 42.28515625 C19.76631634 44.67124023 19.75493464 47.05734884 19.74694824 49.44346619 C19.71650371 55.7027135 19.63800385 61.96045933 19.54931641 68.21911621 C19.4672608 74.61396984 19.43089449 81.00906775 19.390625 87.40429688 C19.30500481 99.93683594 19.17014128 112.46833785 19 125 C19.61696747 125.06162827 20.23393494 125.12325653 20.86959839 125.18675232 C22.08439377 125.31365196 22.08439377 125.31365196 23.32373047 125.44311523 C24.12632294 125.5253685 24.92891541 125.60762177 25.75582886 125.69236755 C33.12518534 126.70256376 39.02477083 131.13162397 43.52734375 136.84765625 C48.8462387 144.62142579 50.10973735 151.59583403 49 161 C47.05638087 169.16550047 42.65709986 175.90040705 35.640625 180.5703125 C29.67994985 183.80980987 26.29242219 184.18973087 19 185 C19 224.6 19 264.2 19 305 C15.7 305.66 12.4 306.32 9 307 C0.31490628 310.60730083 -4.24055013 316.30893522 -8.875 324.1875 C-11.33222449 332.51476078 -10.94093901 340.90689548 -7.2421875 348.7890625 C-2.72320611 356.83228096 3.36162391 360.75380066 12 364 C14.32918562 364.3611785 16.66241231 364.69794149 19 365 C19.20887658 378.77806565 19.36862123 392.55575238 19.46630955 406.3350811 C19.51320474 412.73404896 19.57677389 419.13193066 19.67895508 425.53027344 C19.77701585 431.70954119 19.83061529 437.88776683 19.85389519 444.06775284 C19.87047672 446.42091395 19.90285817 448.77402039 19.95157051 451.12673569 C20.36407296 471.88241504 20.36407296 471.88241504 14.73803711 478.26220703 C12.39561462 480.26077271 12.39561462 480.26077271 10 482 C8.43422859 483.39216265 6.87132559 484.78756439 5.3125 486.1875 C-12.46788177 499.76973608 -33.44106292 503.50977511 -55.31738281 500.70263672 C-74.08376535 497.40631941 -90.58272149 485.99301959 -102 471 C-112.01990455 455.97904976 -116.46153235 442.02540249 -116 424 C-116.70382813 423.86464844 -117.40765625 423.72929687 -118.1328125 423.58984375 C-130.50089949 420.89340703 -141.56955101 415.46850884 -151 407 C-152.23169922 405.90751953 -152.23169922 405.90751953 -153.48828125 404.79296875 C-166.77150592 392.31600961 -175.60328571 374.75526184 -176.3359375 356.3984375 C-176.58069491 339.99157742 -174.51348618 326.81142152 -167 312 C-167.81082031 311.47792969 -168.62164062 310.95585937 -169.45703125 310.41796875 C-187.94746894 298.24647869 -200.53881689 282.00734379 -205.64453125 260.25390625 C-207.03773219 247.50075915 -207.55585914 233.12446385 -203 221 C-202.6596875 220.02546875 -202.319375 219.0509375 -201.96875 218.046875 C-195.2542056 200.35314313 -182.94191369 187.70982178 -167 178 C-167.31453125 177.37996094 -167.6290625 176.75992188 -167.953125 176.12109375 C-176.85140525 157.70808613 -179.73455603 136.28731198 -173.37890625 116.51171875 C-168.46274364 103.99151993 -162.72379189 94.35035232 -153 85 C-152.34386719 84.33613281 -151.68773437 83.67226562 -151.01171875 82.98828125 C-142.52784617 74.90407719 -128.03385241 66 -116 66 C-116.04640625 65.16339844 -116.0928125 64.32679687 -116.140625 63.46484375 C-116.74656119 43.92340164 -109.29169329 26.24621346 -96 12 C-70.62166795 -14.34666268 -31.27955144 -18.83459926 0 0 Z " fill="#474F54" transform="translate(237,11)"/>
<path d="M0 0 C15.09953694 11.88642268 26.76967346 28.22375975 30.69140625 47.31640625 C31.3407231 52.81895032 31.13767861 58.36876197 30.99609375 63.8984375 C31.69992187 64.03378906 32.40375 64.16914062 33.12890625 64.30859375 C45.49699324 67.00503047 56.56564476 72.42992866 65.99609375 80.8984375 C67.22779297 81.99091797 67.22779297 81.99091797 68.484375 83.10546875 C81.76759967 95.58242789 90.59937946 113.14317566 91.33203125 131.5 C91.57678866 147.90686008 89.50957993 161.08701598 81.99609375 175.8984375 C83.21232422 176.68154297 83.21232422 176.68154297 84.453125 177.48046875 C102.773561 189.54005373 114.70677099 205.01947799 120.30859375 226.4609375 C120.99609375 230.8984375 120.99609375 230.8984375 120.99609375 242.8984375 C86.34609375 242.8984375 51.69609375 242.8984375 15.99609375 242.8984375 C15.66609375 245.8684375 15.33609375 248.8384375 14.99609375 251.8984375 C12.3025847 260.24484751 7.23332832 265.87626618 -0.28515625 270.21484375 C-7.98856419 273.80393154 -16.14829106 274.49752231 -24.25390625 271.828125 C-34.05972406 267.34196335 -39.47566103 261.34291274 -43.375 251.390625 C-44.00390625 248.8984375 -44.00390625 248.8984375 -44.00390625 242.8984375 C-63.80390625 242.8984375 -83.60390625 242.8984375 -104.00390625 242.8984375 C-104.00390625 223.0984375 -104.00390625 203.2984375 -104.00390625 182.8984375 C-100.04390625 181.9084375 -96.08390625 180.9184375 -92.00390625 179.8984375 C-84.01460193 175.5965044 -79.18734452 170.50435859 -75.875 162 C-73.6760885 154.17069178 -74.1241873 146.83187567 -77.56640625 139.4609375 C-81.82436244 131.88457413 -86.75447232 127.74306989 -95.00390625 124.8984375 C-96.57494784 124.5199608 -98.15081843 124.16107802 -99.73046875 123.8203125 C-100.53307129 123.6459668 -101.33567383 123.47162109 -102.16259766 123.29199219 C-102.77022949 123.16211914 -103.37786133 123.03224609 -104.00390625 122.8984375 C-104.21278283 109.12037185 -104.37252748 95.34268512 -104.4702158 81.5633564 C-104.51711099 75.16438854 -104.58068014 68.76650684 -104.68286133 62.36816406 C-104.7809221 56.18889631 -104.83452154 50.01067067 -104.85780144 43.83068466 C-104.87438297 41.47752355 -104.90676442 39.12441711 -104.95547676 36.77170181 C-105.36797921 16.01602246 -105.36797921 16.01602246 -99.74194336 9.63623047 C-97.39952087 7.63766479 -97.39952087 7.63766479 -95.00390625 5.8984375 C-93.43813484 4.50627485 -91.87523184 3.11087311 -90.31640625 1.7109375 C-64.03095731 -18.36822488 -27.05067009 -18.92491613 0 0 Z " fill="#FE807F" transform="translate(360.00390625,13.1015625)"/>
<path d="M0 0 C3.92502927 2.75962855 7.54798568 5.66805575 11 9 C11.65382408 9.60771964 12.30764816 10.21543928 12.9812851 10.84157467 C17.80804435 15.69747949 19.91238127 19.02347985 19.99536133 25.91014099 C19.96659912 26.87831253 19.93783691 27.84648407 19.90820312 28.84399414 C19.90937134 29.88894043 19.91053955 30.93388672 19.91174316 32.01049805 C19.90620516 35.43677452 19.84415189 38.85949417 19.78125 42.28515625 C19.76631634 44.67124023 19.75493464 47.05734884 19.74694824 49.44346619 C19.71650371 55.7027135 19.63800385 61.96045933 19.54931641 68.21911621 C19.4672608 74.61396984 19.43089449 81.00906775 19.390625 87.40429688 C19.30500481 99.93683594 19.17014128 112.46833785 19 125 C19.61696747 125.06162827 20.23393494 125.12325653 20.86959839 125.18675232 C22.08439377 125.31365196 22.08439377 125.31365196 23.32373047 125.44311523 C24.12632294 125.5253685 24.92891541 125.60762177 25.75582886 125.69236755 C33.12518534 126.70256376 39.02477083 131.13162397 43.52734375 136.84765625 C48.8462387 144.62142579 50.10973735 151.59583403 49 161 C47.05638087 169.16550047 42.65709986 175.90040705 35.640625 180.5703125 C29.67994985 183.80980987 26.29242219 184.18973087 19 185 C19 204.8 19 224.6 19 245 C-0.8 245 -20.6 245 -41 245 C-41.66 241.7 -42.32 238.4 -43 235 C-46.53869963 226.4800735 -52.36901725 220.92523317 -60.6875 217.125 C-68.77721002 214.51286271 -76.76709662 214.99885917 -84.4375 218.5625 C-92.53061021 223.12620378 -97.1930541 229.13292989 -100 238 C-100.33 240.31 -100.66 242.62 -101 245 C-135.65 245 -170.3 245 -206 245 C-206 223.92339764 -199.4642299 206.62149377 -184.75 191.25 C-179.31101972 185.994099 -173.45282579 181.93025515 -167 178 C-167.31453125 177.37996094 -167.6290625 176.75992188 -167.953125 176.12109375 C-176.85140525 157.70808613 -179.73455603 136.28731198 -173.37890625 116.51171875 C-168.46274364 103.99151993 -162.72379189 94.35035232 -153 85 C-152.34386719 84.33613281 -151.68773437 83.67226562 -151.01171875 82.98828125 C-142.52784617 74.90407719 -128.03385241 66 -116 66 C-116.04640625 65.16339844 -116.0928125 64.32679687 -116.140625 63.46484375 C-116.74656119 43.92340164 -109.29169329 26.24621346 -96 12 C-70.62166795 -14.34666268 -31.27955144 -18.83459926 0 0 Z " fill="#64E0DB" transform="translate(237,11)"/>
</svg>
